PathFileType	4	(X/Y/Z)	C:/Users/beibeiliu/ov580/test_trc\sequence.42_training_dense_right.trc
DataRate	CameraRate	NumFrames	NumMarkers	Units	OrigDataRate	OrigDataStartFrame	OrigNumFrames
120	120	23	19	mm	120	28	81
Frame#	Time	ThumbCMC			ThumbMCP			ThumbIP			ThumbTip			IndexMCP			IndexPIP			IndexTip			MiddleMCP			MiddlePIP			MiddleTip			RingMCP			RingPIP			RingTip			PinkyMCP			PinkyPIP			PinkyTip			BackHand1			BackHand2			BackHand3	
		X0	Y0	Z0	X1	Y1	Z1	X2	Y2	Z2	X3	Y3	Z3	X4	Y4	Z4	X5	Y5	Z5	X6	Y6	Z6	X7	Y7	Z7	X8	Y8	Z8	X9	Y9	Z9	X10	Y10	Z10	X11	Y11	Z11	X12	Y12	Z12	X13	Y13	Z13	X14	Y14	Z14	X15	Y15	Z15	X16	Y16	Z16	X17	Y17	Z17	X18	Y18	Z18	
27	0.225	98.2561	70.6691	86.4356	87.2231	92.0464	67.176	74.9146	102.067	44.2033	61.1889	110.502	31.9497	78.5614	48.8662	24.7431	69.0859	58.6301	3.25222	55.1272	83.7054	-4.97582	60.1039	35.3502	26.9729	42.3202	43.137	3.76294	29.5893	71.7929	-3.56206	44.3246	30.1308	41.3649	33.541	40.796	16.3783	18.8272	62.6871	10.2361	28.8948	29.4777	57.1747	13.4338	35.5741	41.6216	10.8243	58.2615	26.5095	62.6898	27.1789	77.8549	74.989	25.9696	105.489	89.91	35.8192	80.8134	
28	0.233333	100.258	64.5296	86.9339	95.5559	81.987	61.5281	89.3952	89.5926	43.7308	77.8925	97.9623	24.1181	81.8745	35.9693	28.997	73.9322	44.4429	7.31281	65.0328	73.4407	-2.39367	59.0833	27.7217	33.7607	48.5724	34.8453	9.16612	39.5278	64.2118	-2.3226	42.695	29.478	44.7286	32.8977	37.5064	21.9921	29.9715	60.2369	11.6483	28.2983	35.9986	62.1317	18.0812	41.5622	41.5064	15.5491	59.5745	28.5666	60.201	30.6954	88.4946	66.4071	32.6567	114.764	88.4454	33.6687	88.4765	
29	0.241667	99.5357	61.0625	90.0275	98.1065	75.2334	62.6809	96.7497	79.8312	37.1105	83.466	82.3089	17.2032	75.6904	26.0943	34.352	71.5588	31.6862	11.8792	68.2567	56.4663	-0.382984	54.3227	20.4967	38.9336	45.4435	28.0151	12.4365	47.2608	55.8415	-2.77293	39.4296	28.5589	51.4055	33.643	34.0927	23.2065	36.631	56.6932	10.3963	27.5381	38.946	65.2094	17.8499	42.7782	41.2917	19.3121	58.4888	26.6925	54.2807	33.7476	91.6222	59.9742	38.9029	118.62	85.4785	34.9159	97.1622	
30	0.25	99.2751	59.0479	84.8899	98.8207	69.3532	56.9013	96.556	72.0823	35.921	88.8042	73.8519	16.0263	78.8534	20.1884	37.5807	68.5572	25.3909	12.4142	68.2923	46.9153	-1.53029	53.2751	17.1261	40.9708	45.201	20.499	11.9657	45.3957	46.5369	-3.15002	37.0357	24.6632	49.8041	34.2502	28.0917	22.9288	34.9632	53.3379	8.34408	27.1521	37.8866	61.9983	21.4932	38.768	38.9445	23.7406	52.5964	22.9002	50.8604	36.8625	92.318	58.4047	44.0084	114.331	81.2075	34.935	98.109	
31	0.258333	98.3339	57.2252	81.1117	98.2937	64.5314	48.8973	97.6597	65.5256	29.179	91.9281	67.1504	5.97981	74.1542	16.1235	37.688	69.6731	19.183	7.88116	67.2816	42.9345	-5.78376	51.0307	11.5848	37.7852	43.1237	14.2446	10.2788	47.732	40.3341	-9.94258	37.3533	21.0694	44.7563	31.8057	24.5313	18.8194	38.0905	41.7803	3.37656	23.9166	36.6724	58.3848	19.9533	35.0458	35.7872	26.4395	47.513	16.1796	51.3115	35.7007	86.7386	59.6079	43.8071	112.128	76.4217	34.3184	94.0293	
32	0.266667	102.644	53.2141	74.5217	101.746	58.9536	40.4468	102.169	58.4694	18.1838	94.061	59.844	-2.64092	76.571	10.3354	30.378	74.6036	13.8683	-1.74946	73.2742	34.5217	-13.7336	54.0952	9.19658	31.9187	48.2649	9.076	0.412121	46.3191	34.9116	-16.9965	38.3148	17.6394	38.2537	34.4531	18.207	11.2954	37.5321	40.087	-5.92579	26.9437	32.1479	50.6598	17.1753	31.5928	27.7867	27.9604	44.5542	6.66228	49.3205	31.4588	81.002	54.9977	41.713	101.72	76.0639	28.0722	83.7716	
33	0.275	103.05	43.4398	62.933	106.881	52.9734	34.9266	106.292	54.2432	11.4933	99.8639	54.91	-13.5169	80.5366	3.31032	11.9377	75.6748	8.7324	-13.2264	72.8003	32.6728	-26.0548	52.9472	6.2001	18.2524	48.7399	7.25901	-13.0235	51.2432	31.8029	-29.4873	37.5542	12.536	21.7921	34.2655	17.3704	-2.85009	38.0283	37.8057	-16.1456	26.9939	25.886	36.098	19.9931	27.4299	14.4881	26.8668	42.8302	-7.3792	52.3903	21.7591	68.5351	59.5916	29.9352	88.1336	82.8759	20.7302	73.1183	
34	0.283333	103.929	34.0074	49.3536	110.287	48.5169	22.3512	106.797	54.2345	5.07345	103.23	62.2746	-20.745	76.7861	9.16729	-4.52627	76.9385	20.2888	-33.2965	75.0332	43.0712	-40.3867	58.2429	7.83321	-6.05605	50.7864	18.2493	-29.9666	53.1198	49.8635	-39.9905	41.8497	15.4844	5.79858	35.8755	25.4476	-16.2144	45.0026	51.2569	-28.5199	29.2332	25.8654	21.9035	21.6769	33.2503	1.24033	30.0309	48.4574	-15.1179	53.6675	17.1608	53.3413	63.1764	19.2355	76.053	82.8873	10.6323	53.5432	
35	0.291667	106.223	31.8865	44.1188	111.328	52.1463	16.5621	111.488	63.5277	-0.437434	101.328	74.4186	-17.3524	79.8297	20.8956	-21.2476	71.693	35.9769	-38.6678	73.7933	61.5382	-46.8578	55.5734	21.3252	-19.2658	48.9213	39.0632	-39.8676	48.0384	69.3303	-41.902	39.2752	25.9023	-2.50047	37.6742	42.8399	-26.6837	40.7795	70.3459	-29.123	28.5661	30.7021	11.4943	22.8024	41.1343	-2.95231	28.8277	63.5505	-14.5327	57.9917	12.0166	39.2232	65.3262	10.54	65.636	81.9436	7.85086	41.0888	
36	0.3	104.874	35.9202	36.3664	109.977	58.6566	20.3239	108.178	74.3113	-2.43493	101.252	88.5967	-14.5759	73.6168	35.192	-23.0219	70.9849	53.027	-42.4339	66.0211	78.1325	-43.9273	56.0993	36.0405	-23.0503	46.2141	55.563	-38.7188	48.3483	88.4289	-39.5341	38.889	37.1616	-5.87032	33.3764	59.4081	-24.87	39.0463	84.397	-24.0264	26.3363	39.5628	14.7532	17.7472	58.2756	-4.32728	24.7315	74.1171	-11.396	56.8176	18.6835	33.4891	65.0885	10.7075	52.9985	83.1982	12.4247	35.9463	
37	0.308333	103.673	41.0213	40.7022	110.687	66.7335	23.3586	106.494	85.7639	3.31094	97.4832	101.418	-6.74085	71.6875	48.8326	-19.8458	63.6269	67.3442	-36.9594	65.1034	95.8179	-38.989	49.8878	48.3538	-19.5629	39.1374	71.2007	-32.7217	40.1604	102.322	-27.3745	35.1571	46.8864	-3.28862	29.5103	72.8658	-18.6965	35.7483	95.1079	-15.7416	21.966	48.7392	16.4613	15.6094	68.9902	2.87473	25.034	89.7071	-1.2932	54.3076	21.8669	33.532	60.8502	12.7879	51.7903	80.3262	19.702	28.5256	
38	0.316667	105.971	44.429	42.1674	109.988	72.5612	29.1833	104.756	93.7935	13.7526	96.869	110.75	8.3669	68.5557	62.5793	-17.9085	62.3204	84.2498	-30.2817	58.7869	110.565	-23.5394	45.8923	58.5891	-11.4398	38.5618	83.0593	-24.342	38.7995	114.481	-14.787	34.0675	58.3137	-0.418782	25.2598	79.8417	-7.06218	33.4316	105.21	-0.204176	23.6327	52.6573	23.2	13.5174	71.6215	15.6288	22.0918	94.098	13.5659	56.0804	27.1951	34.4965	66.4002	14.9231	49.5809	81.3676	23.2265	28.5596	
39	0.325	112.856	49.3764	45.037	109.334	80.2475	36.992	101.907	100.053	30.3144	95.4937	118.37	29.1791	72.8203	72.1881	-4.43701	61.9719	95.9152	-16.2128	56.9509	122.225	-4.69177	48.464	70.9921	-4.14406	34.4357	97.4488	-6.31118	33.9433	122.224	11.6688	31.5388	65.6783	11.9671	26.0536	90.6034	10.3604	33.5316	112.108	25.4045	26.7156	56.2738	30.3421	14.8257	77.9846	30.5461	24.2608	99.8467	37.3152	57.3874	28.4076	36.689	70.803	12.844	52.9314	87.1298	28.736	28.7404	
40	0.333333	115.65	54.6707	48.9995	112.896	83.0137	52.0232	106.488	105.478	49.7369	95.0429	123.507	49.3193	73.4287	82.5321	6.59481	57.6198	105.554	3.53293	51.7009	129.748	21.6241	47.2285	76.2882	12.3351	35.6445	101.384	12.3414	32.6088	124.962	35.2477	35.7996	66.5106	27.6957	26.8035	93.316	29.5402	30.2359	110.865	47.9122	27.3585	54.6866	44.4627	17.1627	76.9118	49.0705	25.013	96.296	59.5665	65.655	31.8846	38.7309	79.1996	12.6342	49.9553	90.8244	33.8518	34.7971	
41	0.341667	122.222	57.9455	54.536	120.941	86.7592	59.5869	108.011	108.625	56.4204	97.034	129.088	57.9415	81.3777	87.8879	10.5177	63.6883	110.116	9.07084	57.0147	130.099	24.6123	55.1174	81.6662	13.705	38.0774	102.447	19.6141	34.3916	122.176	44.6217	42.124	69.0423	27.7917	33.3105	90.9931	31.2161	35.2033	109.416	55.4638	37.4695	51.3429	46.041	25.9424	76.4522	49.6001	29.0412	91.6687	62.7302	76.4347	30.5234	39.6862	89.282	17.8798	50.5786	104.876	38.9283	35.9899	
42	0.35	131.932	67.6979	53.5913	125.578	95.3494	55.801	113.538	118.003	48.386	99.0585	136.081	44.9236	92.7846	88.4506	0.851896	78.1129	105.968	-4.37762	65.3424	126.652	7.43019	70.2834	77.5932	1.78693	53.3162	95.9921	0.754117	43.2508	119.216	21.6037	62.6234	67.4045	14.2889	45.5487	88.6003	15.0462	44.1693	107.242	30.2448	51.5786	49.3899	33.364	35.8218	67.238	32.8675	35.6405	91.1675	43.0241	94.863	33.9797	35.1448	106.088	22.4877	48.9037	119.805	46.6665	33.2733	
43	0.358333	139.224	91.6533	57.3699	123.311	114.092	52.0858	110.378	130.869	41.6953	94.6828	142.386	33.0591	113.435	95.2672	-3.1376	95.0524	116.303	-19.0635	77.647	131.072	-13.4622	96.1292	82.2236	-6.32509	75.3711	101.048	-18.977	56.1948	118.888	-6.39902	84.2529	69.3581	1.20828	63.0219	90.1796	-5.55422	50.2705	105.075	7.12963	70.4066	53.5739	16.2693	55.5914	69.7152	9.8655	45.5359	89.6773	16.3927	114.899	48.0236	33.539	125.161	39.295	50.292	135.304	61.0621	39.8635	
44	0.366667	121.317	117.557	66.3846	100.534	134.385	61.4038	82.811	143.713	48.2115	64.486	148.509	35.4024	111.602	125.538	0.755954	93.4814	134.808	-12.8667	65.0101	137.651	-12.5087	103.182	106.181	-5.72487	79.1703	111.68	-20.7204	51.8928	121.323	-13.7185	94.6984	87.4302	-2.21226	71.9124	98.3546	-12.2941	51.4875	105.492	-3.46319	90.2103	70.2262	11.6199	68.8158	74.749	1.35734	53.9437	90.0523	2.55101	125.941	74.8815	34.2721	134.588	67.892	61.2097	138.431	96.4603	51.3338	
45	0.375	96.4957	133.957	80.3812	68.1507	141.552	70.6661	49.2826	145.311	56.6129	31.7598	141.282	40.6829	93.3712	145.649	17.9002	71.3868	152.086	0.296068	43.5012	144.743	-3.70501	94.9683	130.2	5.21721	74.9286	130.651	-13.3194	43.7383	121.709	-13.5449	96.971	109.657	8.73574	72.8122	110.11	-9.29305	48.8296	108.269	-6.72167	97.9817	85.391	12.4709	82.6551	87.5319	1.30546	57.8241	86.1052	-3.64228	122.106	105.285	47.7151	133.927	94.8292	70.4526	122.204	128.784	63.3891	
46	0.383333	72.411	134.907	88.6728	48.0489	129.659	74.5888	27.9544	127.555	56.1521	19.4231	120.282	42.4985	69.3092	157.398	28.6342	52.8637	154.107	6.9936	29.7274	137.441	-1.96571	83.4218	142.426	13.3773	64.4223	139.616	-9.24149	41.4309	121.737	-14.9432	92.5993	125.787	13.9653	72.3414	121.104	-7.41428	50.1993	109.839	-9.27517	103.735	101.625	13.7178	86.3502	96.297	-2.18472	67.2388	95.9932	-6.79278	114.247	119.891	50.408	124.392	115.512	74.2203	105.01	138.479	72.8253	
47	0.391667	65.7454	123.884	90.7307	37.9417	114.684	73.2116	23.3628	109.881	55.7487	18.9687	102.855	34.4296	56.2163	155.474	35.0724	43.1751	151.202	8.49461	24.3129	135.699	-0.639813	76.9831	146.782	15.4321	58.8171	141.638	-8.76786	39.4035	120.932	-17.2826	90.4159	133.124	17.2104	74.2956	125.678	-8.51273	56.2808	112.573	-12.4396	105.172	114.742	17.523	92.4063	112.222	-0.241354	75.5356	104.163	-10.7971	110.645	128.443	58.8091	116.541	122.814	84.2407	92.8735	139.153	82.2854	
48	0.4	58.5565	115.075	89.1929	37.3235	101.652	70.9086	24.9163	96.3176	48.5484	20.0679	89.1731	32.2019	49.6967	151.443	29.8911	35.5365	148.761	12.5338	27.2482	129.639	-4.47542	72.4221	147.111	16.9641	57.3775	142.979	-6.48684	43.5005	118.906	-19.9546	86.4011	137.979	18.1491	76.8316	132.185	-5.20543	60.0916	109.132	-16.8892	106.703	120.213	20.8423	100.114	115.237	-1.673	81.8128	108.042	-12.1512	106.071	129.319	62.596	113.187	125.087	83.3074	85.0873	136.894	83.0261	
49	0.408333	58.696	107.72	84.4554	38.3315	93.87	61.7916	28.042	86.0191	46.5797	24.4836	80.3081	24.1476	48.7389	142.677	31.505	34.7831	138.062	5.2897	27.1904	118.406	-10.0975	67.3759	143.313	21.8888	59.3119	136.927	-10.7133	48.6675	115.541	-22.5319	88.3461	135.235	15.9461	75.3123	131.493	-5.4187	63.6626	109.084	-20.0365	104.664	122.092	22.6278	101.392	116.267	-1.02498	86.797	108.602	-14.0558	102.498	129.294	61.1197	106.887	122.096	84.1759	81.7088	132.598	82.8801	
